# xmcd CD database file
#
# Track frame offsets:
#	150
#	8095
#	29112
#	45239
#	75136
#	106955
#	126918
#	145538
#	166378
#	185490
#	209531
#	246479
#	272248
#	279775
#	297156
#	309779
#
# Disc length: 4309 seconds
#
# Revision: 1
# Processed by: cddbd v1.5.1PL0 Copyright (c) Steve Scherf et al.
# Submitted via: CDex 1.51
#
DISCID=d710d310
DTITLE=John Stapleton - VV Mix Easter 2004
DYEAR=2004
DGENRE=Jazz
TTITLE0=Lindsay Peck - Dawn
TTITLE1=Linda Perhacs - Parallelograms
TTITLE2=Dual Control - Spring Again
TTITLE3=Norma Winstone - Perkins Landing
TTITLE4=Bley Peacock - Spring Again
TTITLE5=Parkers Barton - A Rainy Day
TTITLE6=Curved Air - Umbo
TTITLE7=Sundae Times - Psychedelic Dream
TTITLE8=Trifle - Home Again
TTITLE9=CCS - Sunrise
TTITLE10=John And Beverly - Sweet Honesty
TTITLE11=Avon Cities - Fuse Blues
TTITLE12=Fuzz Against Funk - Mulberry Street
TTITLE13=The Pentangle - The Snows
TTITLE14=Davy Graham - Nadu Silma
TTITLE15=Syd Barrett - Wined And Dined
EXTD=YEAR: 2004
EXTT0=
EXTT1=
EXTT2=
EXTT3=
EXTT4=
EXTT5=
EXTT6=
EXTT7=
EXTT8=
EXTT9=
EXTT10=
EXTT11=
EXTT12=
EXTT13=
EXTT14=
EXTT15=
PLAYORDER=
